<svg width="50" height="24" viewBox="0 0 50 24" fill="none" xmlns="http://www.w3.org/2000/svg">
<path d="M12.009 0.299541C13.2803 0.299541 14.5272 0.446232 15.7496 0.739614C16.9965 1.033 18.1823 1.47307 19.3069 2.05984C20.4315 2.62215 21.4217 3.38006 22.2774 4.33355C23.1575 5.28704 23.6343 6.4239 23.7076 7.74412V9.28438V20.983C23.5609 22.4499 22.7541 23.2445 21.2872 23.3667C20.6027 23.3667 20.0037 23.1467 19.4903 22.7066C19.0013 22.2421 18.7568 21.6676 18.7568 20.983V8.88097C18.7079 8.12307 18.4145 7.49963 17.8767 7.01066C17.3632 6.49724 16.7765 6.09384 16.1164 5.80046C15.4807 5.50708 14.8084 5.28704 14.0994 5.14035C13.4148 4.99366 12.718 4.92031 12.009 4.92031C11.3 4.92031 10.591 4.99366 9.88199 5.14035C9.19743 5.28704 8.52509 5.50708 7.86498 5.80046C7.22932 6.09384 6.64255 6.49724 6.10469 7.01066C5.59127 7.49963 5.31011 8.12307 5.26121 8.88097V20.983C5.13897 22.4499 4.34439 23.2445 2.87748 23.3667C2.19292 23.3667 1.59393 23.1467 1.08051 22.7066C0.591544 22.2421 0.347059 21.6676 0.347059 20.983V9.28438V7.74412C0.420404 6.4239 0.884926 5.28704 1.74062 4.33355C2.59632 3.38006 3.58649 2.62215 4.71112 2.05984C5.83575 1.47307 7.00928 1.033 8.23171 0.739614C9.47858 0.446232 10.7377 0.299541 12.009 0.299541ZM27.1035 0.702942C27.7636 0.72739 28.326 0.971875 28.7905 1.4364C29.255 1.87647 29.4995 2.42656 29.5239 3.08667V21.0563C29.3772 22.5233 28.5704 23.3178 27.1035 23.4401C26.419 23.4401 25.82 23.22 25.3066 22.78C24.8176 22.3154 24.5731 21.7409 24.5731 21.0563V3.08667C24.5976 2.40211 24.8543 1.8398 25.3432 1.39972C25.8322 0.935203 26.419 0.702942 27.1035 0.702942ZM33.3746 7.15735C35.0126 6.05717 37.2252 4.94476 40.0124 3.82013L46.0267 1.25303C46.2956 1.13079 46.589 1.05745 46.9068 1.033C47.5914 0.9841 48.1782 1.19191 48.6671 1.65643C49.1561 2.09651 49.4006 2.67105 49.4006 3.38006C49.4006 4.18686 49.2294 4.78585 48.8872 5.17702C48.5693 5.54375 48.1537 5.84936 47.6403 6.09384L42.5061 8.0375C41.5037 8.42868 40.5502 8.81985 39.6456 9.21103C38.7655 9.57776 37.9587 10.0056 37.2252 10.4946C36.4918 10.9347 36.1006 11.4358 36.0517 11.9982C36.1006 12.536 36.4918 13.0372 37.2252 13.5017C37.9587 13.9907 38.7655 14.4308 39.6456 14.822C40.5502 15.1887 41.5037 15.5676 42.5061 15.9588L48.2271 18.0492C48.7405 18.2937 49.1561 18.6115 49.4739 19.0027C49.8162 19.3694 49.9874 19.9562 49.9874 20.763C49.9874 21.472 49.7429 22.0587 49.2539 22.5233C48.7649 22.9633 48.1782 23.1589 47.4936 23.11C47.1758 23.0856 46.8824 23.0122 46.6135 22.89L40.0124 20.1762C37.2252 19.0516 35.0004 17.9392 33.3379 16.839C31.6999 15.7143 30.8686 14.1007 30.8442 11.9982C30.8686 9.89559 31.7121 8.28199 33.3746 7.15735Z" fill="white"/>
</svg>
